
<svg width="16" height="16" viewBox="0 0 16 16" fill="none" xmlns="http://www.w3.org/2000/svg">
  <path d="M8.78145 7.99999L5.48145 4.69999C5.38717 4.60571 5.33857 4.47904 5.33857 4.34666C5.33857 4.21428 5.38717 4.08761 5.48145 3.99332C5.57573 3.89904 5.70241 3.85045 5.83478 3.85045C5.96716 3.85045 6.09383 3.89904 6.18812 3.99332L9.85478 7.65999C9.94907 7.75427 9.99766 7.88094 9.99766 8.01332C9.99766 8.1457 9.94907 8.27237 9.85478 8.36666L6.18812 12.0333C6.09383 12.1276 5.96716 12.1762 5.83478 12.1762C5.70241 12.1762 5.57573 12.1276 5.48145 12.0333C5.38717 11.939 5.33857 11.8124 5.33857 11.68C5.33857 11.5476 5.38717 11.4209 5.48145 11.3267L8.78145 7.99999Z" fill="#101828"/>
</svg>
