
<svg width="16" height="16" viewBox="0 0 16 16" fill="none" xmlns="http://www.w3.org/2000/svg">
  <path d="M3.33334 8.00001H12.6667M12.6667 8.00001L8.00001 3.33334M12.6667 8.00001L8.00001 12.6667" stroke="#101828" stroke-width="1.33333" stroke-linecap="round" stroke-linejoin="round"/>
</svg>
<svg width="16" height="16" viewBox="0 0 16 16" fill="none" xmlns="http://www.w3.org/2000/svg">
  <path d="M3.33331 8H12.6666" stroke="#101828" stroke-width="1.5" stroke-linecap="round" stroke-linejoin="round"/>
  <path d="M8 3.33398L12.6667 8.00065L8 12.6673" stroke="#101828" stroke-width="1.5" stroke-linecap="round" stroke-linejoin="round"/>
</svg>
<svg width="16" height="16" viewBox="0 0 16 16" fill="none" xmlns="http://www.w3.org/2000/svg">
  <path d="M8.78108 7.99992L5.48108 4.69992C5.35488 4.56717 5.29114 4.39118 5.30347 4.21118C5.3158 4.03117 5.40308 3.86553 5.54108 3.74991C5.67908 3.63428 5.85767 3.57725 6.03839 3.58992C6.21911 3.60259 6.38739 3.6839 6.50108 3.81992L10.3011 7.61992C10.4231 7.74213 10.4911 7.90893 10.4911 8.08242C10.4911 8.25591 10.4231 8.4227 10.3011 8.54492L6.50108 12.3449C6.38739 12.4809 6.21911 12.5622 6.03839 12.5749C5.85767 12.5876 5.67908 12.5305 5.54108 12.4149C5.40308 12.2993 5.3158 12.1337 5.30347 11.9537C5.29114 11.7737 5.35488 11.5977 5.48108 11.4649L8.78108 7.99992Z" fill="#101828"/>
</svg>
