
<svg width="16" height="16" viewBox="0 0 16 16" fill="none" xmlns="http://www.w3.org/2000/svg">
  <path d="M12.6667 5.33333L10.6667 3.33333H5.33333L3.33333 5.33333H0.666664V13.3333H15.3333V5.33333H12.6667ZM8 11.3333C6.52724 11.3333 5.33333 10.1394 5.33333 8.66667C5.33333 7.19391 6.52724 6 8 6C9.47276 6 10.6667 7.19391 10.6667 8.66667C10.6667 10.1394 9.47276 11.3333 8 11.3333Z" fill="#101828"/>
</svg>
<svg width="16" height="16" viewBox="0 0 16 16" fill="none" xmlns="http://www.w3.org/2000/svg">
  <path d="M8.00016 6.66669C7.26683 6.66669 6.6665 7.26669 6.6665 8.00002C6.6665 8.73335 7.26683 9.33335 8.00016 9.33335C8.7335 9.33335 9.33383 8.73335 9.33383 8.00002C9.33383 7.26669 8.7335 6.66669 8.00016 6.66669ZM11.3335 4.66669H9.9935C9.74016 4.00002 9.40683 3.33335 8.66683 3.33335H7.3335C6.59349 3.33335 6.26016 4.00002 6.00683 4.66669H4.66683C3.9335 4.66669 3.3335 5.26669 3.3335 6.00002V10.6667C3.3335 11.4 3.9335 12 4.66683 12H11.3335C12.0668 12 12.6668 11.4 12.6668 10.6667V6.00002C12.6668 5.26669 12.0668 4.66669 11.3335 4.66669ZM8.00016 10.6667C6.53349 10.6667 5.3335 9.46669 5.3335 8.00002C5.3335 6.53335 6.53349 5.33335 8.00016 5.33335C9.46683 5.33335 10.6668 6.53335 10.6668 8.00002C10.6668 9.46669 9.46683 10.6667 8.00016 10.6667ZM11.0002 6.33335C10.7768 6.33335 10.6668 6.22335 10.6668 6.00002C10.6668 5.77669 10.7768 5.66669 11.0002 5.66669C11.2235 5.66669 11.3335 5.77669 11.3335 6.00002C11.3335 6.22335 11.2235 6.33335 11.0002 6.33335Z" fill="#101828"/>
</svg>
<svg width="20" height="18" viewBox="0 0 20 18" fill="none" xmlns="http://www.w3.org/2000/svg">
<path d="M19 15C19 15.5304 18.7893 16.0391 18.4142 16.4142C18.0391 16.7893 17.5304 17 17 17H3C2.46957 17 1.96086 16.7893 1.58579 16.4142C1.21071 16.0391 1 15.5304 1 15V6C1 5.46957 1.21071 4.96086 1.58579 4.58579C1.96086 4.21071 2.46957 4 3 4H5L7 1H13L15 4H17C17.5304 4 18.0391 4.21071 18.4142 4.58579C18.7893 4.96086 19 5.46957 19 6V15Z" stroke="black" stroke-width="2" stroke-linecap="round" stroke-linejoin="round"/>
<path d="M10 13C11.6569 13 13 11.6569 13 10C13 8.34315 11.6569 7 10 7C8.34315 7 7 8.34315 7 10C7 11.6569 8.34315 13 10 13Z" stroke="black" stroke-width="2" stroke-linecap="round" stroke-linejoin="round"/>
</svg>
<svg width="12" height="12" viewBox="0 0 12 12" fill="none" xmlns="http://www.w3.org/2000/svg">
  <path d="M10.5 3L8.25 3L7.5 1.5L4.5 1.5L3.75 3L1.5 3C0.675 3 0 3.675 0 4.5L0 9C0 9.825 0.675 10.5 1.5 10.5L10.5 10.5C11.325 10.5 12 9.825 12 9L12 4.5C12 3.675 11.325 3 10.5 3ZM6 9C4.755 9 3.75 7.995 3.75 6.75C3.75 5.505 4.755 4.5 6 4.5C7.245 4.5 8.25 5.505 8.25 6.75C8.25 7.995 7.245 9 6 9ZM6 5.625C5.379 5.625 4.875 6.129 4.875 6.75C4.875 7.371 5.379 7.875 6 7.875C6.621 7.875 7.125 7.371 7.125 6.75C7.125 6.129 6.621 5.625 6 5.625Z" fill="#101828"/>
</svg>
