
<svg width="16" height="16" viewBox="0 0 16 16" fill="none" xmlns="http://www.w3.org/2000/svg">
  <path d="M12.6667 5.33333L10.6667 3.33333H5.33333L3.33333 5.33333H0.666664V13.3333H15.3333V5.33333H12.6667ZM8 11.3333C6.52724 11.3333 5.33333 10.1394 5.33333 8.66667C5.33333 7.19391 6.52724 6 8 6C9.47276 6 10.6667 7.19391 10.6667 8.66667C10.6667 10.1394 9.47276 11.3333 8 11.3333Z" fill="#101828"/>
</svg>
<svg width="16" height="16" viewBox="0 0 16 16" fill="none" xmlns="http://www.w3.org/2000/svg">
  <path d="M8 12.6667C10.2091 12.6667 12 10.8758 12 8.66667C12 6.45752 10.2091 4.66667 8 4.66667C5.79086 4.66667 4 6.45752 4 8.66667C4 10.8758 5.79086 12.6667 8 12.6667Z" stroke="#101828" stroke-width="1.33333" stroke-linecap="round" stroke-linejoin="round"/>
  <path d="M8 10C8.73638 10 9.33333 9.40304 9.33333 8.66666C9.33333 7.93028 8.73638 7.33333 8 7.33333C7.26362 7.33333 6.66667 7.93028 6.66667 8.66666C6.66667 9.40304 7.26362 10 8 10Z" fill="#101828"/>
  <path d="M2.66667 4.66667L4.66667 2H11.3333L13.3333 4.66667H14.6667C15.0349 4.66667 15.3333 4.96505 15.3333 5.33333V12.6667C15.3333 13.0349 15.0349 13.3333 14.6667 13.3333H1.33333C0.965153 13.3333 0.666675 13.0349 0.666675 12.6667V5.33333C0.666675 4.96505 0.965153 4.66667 1.33333 4.66667H2.66667Z" stroke="#101828" stroke-width="1.33333" stroke-linecap="round" stroke-linejoin="round"/>
</svg>
