
<svg width="16" height="16" viewBox="0 0 16 16" fill="none" xmlns="http://www.w3.org/2000/svg">
  <path d="M12.6667 5.33333L10.6667 3.33333H5.33333L3.33333 5.33333H0.666664V13.3333H15.3333V5.33333H12.6667ZM8 11.3333C6.52724 11.3333 5.33333 10.1394 5.33333 8.66667C5.33333 7.19391 6.52724 6 8 6C9.47276 6 10.6667 7.19391 10.6667 8.66667C10.6667 10.1394 9.47276 11.3333 8 11.3333Z" fill="#101828"/>
</svg>
<svg width="16" height="16" viewBox="0 0 16 16" fill="none" xmlns="http://www.w3.org/2000/svg">
  <path d="M8.00016 6.66669C7.26683 6.66669 6.6665 7.26669 6.6665 8.00002C6.6665 8.73335 7.26683 9.33335 8.00016 9.33335C8.7335 9.33335 9.33383 8.73335 9.33383 8.00002C9.33383 7.26669 8.7335 6.66669 8.00016 6.66669ZM11.3335 4.66669H9.9935C9.74016 4.00002 9.40683 3.33335 8.66683 3.33335H7.3335C6.59349 3.33335 6.26016 4.00002 6.00683 4.66669H4.66683C3.9335 4.66669 3.3335 5.26669 3.3335 6.00002V10.6667C3.3335 11.4 3.9335 12 4.66683 12H11.3335C12.0668 12 12.6668 11.4 12.6668 10.6667V6.00002C12.6668 5.26669 12.0668 4.66669 11.3335 4.66669ZM8.00016 10.6667C6.53349 10.6667 5.3335 9.46669 5.3335 8.00002C5.3335 6.53335 6.53349 5.33335 8.00016 5.33335C9.46683 5.33335 10.6668 6.53335 10.6668 8.00002C10.6668 9.46669 9.46683 10.6667 8.00016 10.6667ZM11.0002 6.33335C10.7768 6.33335 10.6668 6.22335 10.6668 6.00002C10.6668 5.77669 10.7768 5.66669 11.0002 5.66669C11.2235 5.66669 11.3335 5.77669 11.3335 6.00002C11.3335 6.22335 11.2235 6.33335 11.0002 6.33335Z" fill="#101828"/>
</svg>
<svg width="14" height="12" viewBox="0 0 14 12" fill="none" xmlns="http://www.w3.org/2000/svg">
<path d="M11.0833 10.5H2.91667C2.60725 10.5 2.31052 10.3771 2.09157 10.1582C1.87262 9.93921 1.75 9.64249 1.75 9.33333V3.5C1.75 3.19083 1.87262 2.89411 2.09157 2.67515C2.31052 2.4562 2.60725 2.33333 2.91667 2.33333H4.66667L5.25 1.16667H8.75L9.33333 2.33333H11.0833C11.3928 2.33333 11.6895 2.4562 11.9084 2.67515C12.1274 2.89411 12.25 3.19083 12.25 3.5V9.33333C12.25 9.64249 12.1274 9.93921 11.9084 10.1582C11.6895 10.3771 11.3928 10.5 11.0833 10.5Z" stroke="#101828" stroke-width="1.16667" stroke-linecap="round" stroke-linejoin="round"/>
<path d="M7 8.16667C8.00416 8.16667 8.83333 7.3375 8.83333 6.33333C8.83333 5.32917 8.00416 4.5 7 4.5C5.99584 4.5 5.16667 5.32917 5.16667 6.33333C5.16667 7.3375 5.99584 8.16667 7 8.16667Z" stroke="#101828" stroke-width="1.16667" stroke-linecap="round" stroke-linejoin="round"/>
</svg>
