
<svg width="200" height="80" viewBox="0 0 200 80" fill="none" xmlns="http://www.w3.org/2000/svg">
  <path d="M0,60 C20,40 40,70 60,50 C80,30 100,60 120,40 C140,20 160,50 180,30 C200,10 220,40 240,20" stroke="#4CAF50" stroke-width="2" fill="none" />
</svg>
<svg width="220" height="84" viewBox="0 0 220 84" fill="none" xmlns="http://www.w3.org/2000/svg">
  <path d="M1 82.9994C3.06654 82.9994 5.13308 82.9994 7.19962 82.9994C9.26616 82.9994 11.3327 82.9994 13.3992 82.9994C15.4658 82.9994 17.5323 82.9994 19.5988 82.9994C21.6654 82.9994 23.7319 82.9994 25.7985 82.9994C27.865 82.9994 29.9315 82.9994 31.9981 82.9994C34.0646 82.9994 36.1311 82.9994 38.1977 82.9994C40.2642 82.9994 42.3307 82.9994 44.3973 82.9994C46.4639 82.9994 48.5304 82.9994 50.5969 82.9994C52.6635 82.9994 54.73 82.9994 56.7965 82.9994C58.8631 82.9994 60.9296 82.9994 62.9962 82.9994C65.0627 82.9994 67.1292 82.9994 69.1958 82.9994C71.2623 82.9994 73.3288 82.9994 75.3954 82.9994C77.4619 82.9994 79.5284 82.9994 81.595 42.7071C83.6616 42.7071 85.7281 42.7071 87.7946 42.7071C89.8612 42.7071 91.9277 42.7071 94.0142 59.5771C96.0607 59.5771 98.1273 59.5771 100.194 59.5771C102.26 59.5771 104.327 59.5771 106.393 59.5771C108.46 59.5771 110.526 59.5771 112.593 59.5771C114.659 59.5771 116.726 59.5771 118.794 59.5771C120.86 59.5771 122.927 36.9994 124.993 36.9994C127.06 36.9994 129.126 36.9994 131.192 36.9994C133.259 36.9994 135.326 36.9994 137.392 36.9994C139.459 36.9994 141.525 36.9994 143.592 36.9994C145.658 36.9994 147.725 36.9994 149.792 36.9994C151.858 36.9994 153.925 36.9994 155.991 36.9994C158.058 36.9994 160.125 36.9994 162.191 36.9994C164.258 36.9994 166.324 36.9994 168.391 36.9994C170.457 36.9994 172.524 36.9994 174.59 36.9994C176.657 36.9994 178.723 36.9994 180.79 36.9994C182.856 36.9994 184.923 20.3294 186.99 20.3294C189.056 20.3294 191.123 20.3294 193.189 20.3294C195.256 20.3294 197.322 20.3294 199.389 20.3294C201.455 20.3294 203.522 20.3294 205.588 2.99939C207.655 2.99939 209.721 2.99939 211.788 2.99939C213.854 2.99939 215.921 2.99939 217.988 2.99939C220.054 2.99939 222.121 2.99939 224.187 2.99939" stroke="#12B76A" stroke-width="2" stroke-linecap="round" stroke-linejoin="round"/>
  <path fill-rule="evenodd" clip-rule="evenodd" d="M1 83C7.19962 83 13.3992 83 19.5988 83C25.7985 83 31.9981 83 38.1977 83C44.3973 83 50.5969 83 56.7965 83C62.9962 83 69.1958 83 75.3954 42.7077C81.595 42.7077 87.7946 42.7077 94.0142 59.5777C100.194 59.5777 106.393 59.5777 112.593 59.5777C118.794 59.5777 124.993 37 131.192 37C137.392 37 143.592 37 149.792 37C155.991 37 162.191 37 168.391 37C174.59 37 180.79 37 186.99 20.33C193.189 20.33 199.389 20.33 205.588 3C211.788 3 217.988 3 224.187 3V83H1Z" fill="url(#paint0_linear_1504_4094)"/>
  <defs>
    <linearGradient id="paint0_linear_1504_4094" x1="112.594" y1="3" x2="112.594" y2="83" gradientUnits="userSpaceOnUse">
      <stop stop-color="#12B76A" stop-opacity="0.3"/>
      <stop offset="1" stop-color="#12B76A" stop-opacity="0"/>
    </linearGradient>
  </defs>
</svg>
