
<svg width="24" height="24" viewBox="0 0 24 24" fill="none" xmlns="http://www.w3.org/2000/svg">
  <path d="M12 8L15 13.2L18.5 9.5L17 16H7L5.5 9.5L9 13.2L12 8Z" fill="#FFD600"/>
  <path d="M12 6.5C12.8284 6.5 13.5 5.82843 13.5 5C13.5 4.17157 12.8284 3.5 12 3.5C11.1716 3.5 10.5 4.17157 10.5 5C10.5 5.82843 11.1716 6.5 12 6.5Z" fill="#FFD600"/>
  <path d="M19 8.5C19.8284 8.5 20.5 7.82843 20.5 7C20.5 6.17157 19.8284 5.5 19 5.5C18.1716 5.5 17.5 6.17157 17.5 7C17.5 7.82843 18.1716 8.5 19 8.5Z" fill="#FFD600"/>
  <path d="M5 8.5C5.82843 8.5 6.5 7.82843 6.5 7C6.5 6.17157 5.82843 5.5 5 5.5C4.17157 5.5 3.5 6.17157 3.5 7C3.5 7.82843 4.17157 8.5 5 8.5Z" fill="#FFD600"/>
  <path d="M18 19H6C5.73478 19 5.48043 18.8946 5.29289 18.7071C5.10536 18.5196 5 18.2652 5 18C5 17.7348 5.10536 17.4804 5.29289 17.2929C5.48043 17.1054 5.73478 17 6 17H18C18.2652 17 18.5196 17.1054 18.7071 17.2929C18.8946 17.4804 19 17.7348 19 18C19 18.2652 18.8946 18.5196 18.7071 18.7071C18.5196 18.8946 18.2652 19 18 19Z" fill="#FFD600"/>
</svg>
<svg width="40" height="40" viewBox="0 0 40 40" fill="none" xmlns="http://www.w3.org/2000/svg">
  <circle cx="20" cy="20" r="20" fill="#FFF9DB"/>
  <path d="M28.3334 14.1666L23.3334 16.6666L20.0001 11.6666L16.6667 16.6666L11.6667 14.1666L13.3334 24.1666H26.6667L28.3334 14.1666Z" stroke="#FFD600" stroke-width="2" stroke-linecap="round" stroke-linejoin="round"/>
  <path d="M13.3333 28.3334H26.6666" stroke="#FFD600" stroke-width="2" stroke-linecap="round" stroke-linejoin="round"/>
</svg>
<svg width="40" height="40" viewBox="0 0 40 40" fill="none" xmlns="http://www.w3.org/2000/svg">
  <rect width="40" height="40" rx="8" fill="#FFF7CC"/>
  <path d="M28.3334 13.3334L25.0001 15.0001L21.6667 13.3334L18.3334 15.0001L15.0001 13.3334L11.6667 15.0001V20.0001C11.6667 25.0001 14.9184 29.0951 20.0001 30.0001C25.0834 29.0951 28.3334 25.0001 28.3334 20.0001V15.0001L28.3334 13.3334Z" stroke="#FFB800" stroke-width="2" stroke-linecap="round" stroke-linejoin="round"/>
  <path d="M17.5 21.6667L19.1667 23.3334L22.5 20.0001" stroke="#FFB800" stroke-width="2" stroke-linecap="round" stroke-linejoin="round"/>
</svg>
