
<svg width="20" height="20" viewBox="0 0 20 20" fill="none" xmlns="http://www.w3.org/2000/svg">
  <path d="M16.6667 10.8333L13.3333 6.66667L10 10.8333L6.66667 6.66667L3.33333 10.8333V13.3333H16.6667V10.8333Z" stroke="#D4A900" stroke-width="1.5" stroke-linecap="round" stroke-linejoin="round"/>
  <path d="M4.16667 16.6667H15.8333" stroke="#D4A900" stroke-width="1.5" stroke-linecap="round"/>
  <path d="M7.5 13.3333V16.6667" stroke="#D4A900" stroke-width="1.5" stroke-linecap="round"/>
  <path d="M12.5 13.3333V16.6667" stroke="#D4A900" stroke-width="1.5" stroke-linecap="round"/>
</svg>
<svg width="24" height="24" viewBox="0 0 24 24" fill="none" xmlns="http://www.w3.org/2000/svg">
  <path d="M20.8889 9.88887C21.1836 9.88887 21.4661 9.77208 21.6745 9.56367C21.8829 9.35526 21.9997 9.07276 21.9997 8.77809C21.9997 8.48343 21.8829 8.20092 21.6745 7.99251C21.4661 7.7841 21.1836 7.66732 20.8889 7.66732C20.5943 7.66732 20.3118 7.7841 20.1033 7.99251C19.8949 8.20092 19.7781 8.48343 19.7781 8.77809C19.7781 9.07276 19.8949 9.35526 20.1033 9.56367C20.3118 9.77208 20.5943 9.88887 20.8889 9.88887Z" fill="#FFD600"/>
  <path d="M3.11108 9.88887C3.40574 9.88887 3.68824 9.77208 3.89665 9.56367C4.10506 9.35526 4.22185 9.07276 4.22185 8.77809C4.22185 8.48343 4.10506 8.20092 3.89665 7.99251C3.68824 7.7841 3.40574 7.66732 3.11108 7.66732C2.81641 7.66732 2.53391 7.7841 2.3255 7.99251C2.11709 8.20092 2 8.48343 2 8.77809C2 9.07276 2.11709 9.35526 2.3255 9.56367C2.53391 9.77208 2.81641 9.88887 3.11108 9.88887Z" fill="#FFD600"/>
  <path d="M12 5.55554C12.2947 5.55554 12.5772 5.43875 12.7856 5.23034C12.994 5.02193 13.1108 4.73943 13.1108 4.44476C13.1108 4.1501 12.994 3.8676 12.7856 3.65919C12.5772 3.45078 12.2947 3.33398 12 3.33398C11.7053 3.33398 11.4228 3.45078 11.2144 3.65919C11.006 3.8676 10.8892 4.1501 10.8892 4.44476C10.8892 4.73943 11.006 5.02193 11.2144 5.23034C11.4228 5.43875 11.7053 5.55554 12 5.55554Z" fill="#FFD600"/>
  <path d="M5.33333 20.6673H18.6667V17.3451L20.2889 9.55624C19.9587 9.70731 19.592 9.77113 19.2251 9.74109C18.8582 9.71104 18.507 9.58835 18.2046 9.38405C17.9022 9.17975 17.6586 8.89976 17.4969 8.5735C17.3352 8.24725 17.2603 7.88535 17.28 7.52291L12 10.6673L6.72 7.52291C6.73976 7.88534 6.66487 8.24724 6.50313 8.57349C6.3414 8.89974 6.09781 9.17974 5.79539 9.38405C5.49298 9.58835 5.14183 9.71103 4.77492 9.74108C4.40802 9.77113 4.04132 9.70731 3.71111 9.55624L5.33333 17.3451V20.6673Z" stroke="#FFD600" stroke-width="2" stroke-linecap="round" stroke-linejoin="round"/>
</svg>
<svg width="24" height="24" viewBox="0 0 24 24" fill="none" xmlns="http://www.w3.org/2000/svg">
  <path d="M12 2L15.6 9.6L24 10.8L18 16.8L19.2 24L12 20.4L4.8 24L6 16.8L0 10.8L8.4 9.6L12 2Z" fill="#F8CA15"/>
</svg>
