
<svg width="24" height="24" viewBox="0 0 24 24" fill="none" xmlns="http://www.w3.org/2000/svg">
  <path d="M12 8L15 13.2L18.5 9.5L17 16H7L5.5 9.5L9 13.2L12 8Z" fill="#FFD600"/>
  <path d="M12 6.5C12.8284 6.5 13.5 5.82843 13.5 5C13.5 4.17157 12.8284 3.5 12 3.5C11.1716 3.5 10.5 4.17157 10.5 5C10.5 5.82843 11.1716 6.5 12 6.5Z" fill="#FFD600"/>
  <path d="M19 8.5C19.8284 8.5 20.5 7.82843 20.5 7C20.5 6.17157 19.8284 5.5 19 5.5C18.1716 5.5 17.5 6.17157 17.5 7C17.5 7.82843 18.1716 8.5 19 8.5Z" fill="#FFD600"/>
  <path d="M5 8.5C5.82843 8.5 6.5 7.82843 6.5 7C6.5 6.17157 5.82843 5.5 5 5.5C4.17157 5.5 3.5 6.17157 3.5 7C3.5 7.82843 4.17157 8.5 5 8.5Z" fill="#FFD600"/>
  <path d="M18 19H6C5.73478 19 5.48043 18.8946 5.29289 18.7071C5.10536 18.5196 5 18.2652 5 18C5 17.7348 5.10536 17.4804 5.29289 17.2929C5.48043 17.1054 5.73478 17 6 17H18C18.2652 17 18.5196 17.1054 18.7071 17.2929C18.8946 17.4804 19 17.7348 19 18C19 18.2652 18.8946 18.5196 18.7071 18.7071C18.5196 18.8946 18.2652 19 18 19Z" fill="#FFD600"/>
</svg>
<svg width="16" height="16" viewBox="0 0 16 16" fill="none" xmlns="http://www.w3.org/2000/svg">
<path d="M13.3337 5.33337C13.7017 5.33337 14 5.03509 14 4.66671C14 4.29833 13.7017 4.00004 13.3337 4.00004C12.9653 4.00004 12.667 4.29833 12.667 4.66671C12.667 5.03509 12.9653 5.33337 13.3337 5.33337Z" fill="#B54708"/>
<path d="M2.66667 5.33337C3.03505 5.33337 3.33333 5.03509 3.33333 4.66671C3.33333 4.29833 3.03505 4.00004 2.66667 4.00004C2.29829 4.00004 2 4.29833 2 4.66671C2 5.03509 2.29829 5.33337 2.66667 5.33337Z" fill="#B54708"/>
<path d="M8.00033 5.33337C8.36871 5.33337 8.667 5.03509 8.667 4.66671C8.667 4.29833 8.36871 4.00004 8.00033 4.00004C7.63195 4.00004 7.33366 4.29833 7.33366 4.66671C7.33366 5.03509 7.63195 5.33337 8.00033 5.33337Z" fill="#B54708"/>
<path d="M3.06468 10.6667L2.11334 5.94871C2.09866 5.87788 2.10308 5.80486 2.12629 5.73619C2.1495 5.66751 2.19079 5.60529 2.24689 5.55471C2.303 5.50414 2.37231 5.46664 2.44823 5.44544C2.52416 5.42423 2.60449 5.4199 2.68267 5.43271C2.76086 5.44551 2.83534 5.47509 2.89894 5.51871C2.96254 5.56233 3.01337 5.61869 3.048 5.68337L4.52934 8.88337C4.57662 8.9778 4.65359 9.05196 4.74896 9.09601C4.84433 9.14006 4.95238 9.15151 5.05534 9.12871C5.15859 9.10605 5.25105 9.04867 5.31719 8.96646C5.38333 8.88425 5.41936 8.78187 5.42 8.67604V5.94004C5.42007 5.86252 5.43679 5.78607 5.46899 5.71644C5.50119 5.64681 5.54801 5.58583 5.60606 5.53811C5.66411 5.49039 5.73196 5.45719 5.80434 5.44092C5.87673 5.42465 5.95174 5.42574 6.02367 5.44404C6.09522 5.46263 6.1622 5.49776 6.21898 5.54709C6.27576 5.59642 6.32084 5.65855 6.35088 5.72883C6.38092 5.7991 6.39513 5.87545 6.39242 5.95224C6.38971 6.02902 6.37015 6.10388 6.336 6.17204L5.35267 8.61604C5.30748 8.71307 5.28756 8.8217 5.29471 8.93036C5.30186 9.03901 5.3358 9.1441 5.39367 9.23537C5.45118 9.32667 5.53092 9.4015 5.62491 9.45245C5.7189 9.50339 5.82364 9.52849 5.93 9.52537H10.0367C10.147 9.52915 10.2558 9.50304 10.3527 9.44967C10.4497 9.3963 10.5316 9.31738 10.59 9.22137C10.6473 9.12868 10.681 9.02272 10.6879 8.91362C10.6948 8.80451 10.6747 8.69568 10.6293 8.5967L9.654 6.1967C9.61936 6.12831 9.59959 6.05305 9.59703 5.97599C9.59446 5.89893 9.60916 5.82241 9.63996 5.75213C9.67075 5.68185 9.71684 5.61989 9.77458 5.5709C9.83232 5.5219 9.90022 5.48722 9.97249 5.46937C10.044 5.45124 10.1187 5.45031 10.1908 5.46664C10.2629 5.48297 10.3306 5.51617 10.3885 5.56385C10.4464 5.61152 10.4931 5.67241 10.5252 5.74194C10.5573 5.81146 10.574 5.88778 10.574 5.96537V8.67604C10.5745 8.78187 10.6107 8.88425 10.6768 8.96646C10.743 9.04867 10.8354 9.10605 10.9387 9.12871C11.0416 9.15151 11.1497 9.14006 11.245 9.09601C11.3404 9.05196 11.4174 8.9778 11.4647 8.88337L12.9467 5.68537C12.9813 5.62069 13.0321 5.56433 13.0957 5.52071C13.1593 5.47709 13.2338 5.44751 13.3119 5.43471C13.3901 5.4219 13.4705 5.42623 13.5464 5.44744C13.6223 5.46864 13.6916 5.50614 13.7477 5.55671C13.8038 5.60729 13.8451 5.66951 13.8683 5.73819C13.8915 5.80686 13.8959 5.87988 13.8813 5.95071L12.9267 10.6667H3.06468Z" fill="#B54708"/>
<path d="M13.334 11.3333H2.66732C2.48651 11.3333 2.31299 11.4036 2.18797 11.5286C2.06294 11.6536 2.00065 11.8271 2.00065 12.0079V12.6587C2.00065 12.8395 2.06294 13.013 2.18797 13.138C2.31299 13.263 2.48651 13.3333 2.66732 13.3333H13.334C13.5148 13.3333 13.6883 13.263 13.8133 13.138C13.9384 13.013 14.0007 12.8395 14.0007 12.6587V12.0079C14.0007 11.8271 13.9384 11.6536 13.8133 11.5286C13.6883 11.4036 13.5148 11.3333 13.334 11.3333Z" fill="#B54708"/>
</svg>
