
<svg width="24" height="24" viewBox="0 0 24 24" fill="none" xmlns="http://www.w3.org/2000/svg">
  <path d="M12 8L15 13.2L18.5 9.5L17 16H7L5.5 9.5L9 13.2L12 8Z" fill="#FFD600"/>
  <path d="M12 6.5C12.8284 6.5 13.5 5.82843 13.5 5C13.5 4.17157 12.8284 3.5 12 3.5C11.1716 3.5 10.5 4.17157 10.5 5C10.5 5.82843 11.1716 6.5 12 6.5Z" fill="#FFD600"/>
  <path d="M19 8.5C19.8284 8.5 20.5 7.82843 20.5 7C20.5 6.17157 19.8284 5.5 19 5.5C18.1716 5.5 17.5 6.17157 17.5 7C17.5 7.82843 18.1716 8.5 19 8.5Z" fill="#FFD600"/>
  <path d="M5 8.5C5.82843 8.5 6.5 7.82843 6.5 7C6.5 6.17157 5.82843 5.5 5 5.5C4.17157 5.5 3.5 6.17157 3.5 7C3.5 7.82843 4.17157 8.5 5 8.5Z" fill="#FFD600"/>
  <path d="M18 19H6C5.73478 19 5.48043 18.8946 5.29289 18.7071C5.10536 18.5196 5 18.2652 5 18C5 17.7348 5.10536 17.4804 5.29289 17.2929C5.48043 17.1054 5.73478 17 6 17H18C18.2652 17 18.5196 17.1054 18.7071 17.2929C18.8946 17.4804 19 17.7348 19 18C19 18.2652 18.8946 18.5196 18.7071 18.7071C18.5196 18.8946 18.2652 19 18 19Z" fill="#FFD600"/>
</svg>
<svg width="20" height="20" viewBox="0 0 20 20" fill="none" xmlns="http://www.w3.org/2000/svg">
  <path d="M16.6663 17.5H3.33301V15.8333H16.6663V17.5ZM3.43967 14.1667L0.833008 5.83333L5.83301 9.16667L9.99967 3.33333L14.1663 9.16667L19.1663 5.83333L16.5597 14.1667H3.43967Z" fill="#101828"/>
</svg>
