
<svg width="20" height="20" viewBox="0 0 20 20" fill="none" xmlns="http://www.w3.org/2000/svg">
  <path d="M16.6667 10.8333L13.3333 6.66667L10 10.8333L6.66667 6.66667L3.33333 10.8333V13.3333H16.6667V10.8333Z" stroke="#D4A900" stroke-width="1.5" stroke-linecap="round" stroke-linejoin="round"/>
  <path d="M4.16667 16.6667H15.8333" stroke="#D4A900" stroke-width="1.5" stroke-linecap="round"/>
  <path d="M7.5 13.3333V16.6667" stroke="#D4A900" stroke-width="1.5" stroke-linecap="round"/>
  <path d="M12.5 13.3333V16.6667" stroke="#D4A900" stroke-width="1.5" stroke-linecap="round"/>
</svg>
<svg width="24" height="24" viewBox="0 0 24 24" fill="none" xmlns="http://www.w3.org/2000/svg">
  <path d="M20.8889 9.88887C21.1836 9.88887 21.4661 9.77208 21.6745 9.56367C21.8829 9.35526 21.9997 9.07276 21.9997 8.77809C21.9997 8.48343 21.8829 8.20092 21.6745 7.99251C21.4661 7.7841 21.1836 7.66732 20.8889 7.66732C20.5943 7.66732 20.3118 7.7841 20.1033 7.99251C19.8949 8.20092 19.7781 8.48343 19.7781 8.77809C19.7781 9.07276 19.8949 9.35526 20.1033 9.56367C20.3118 9.77208 20.5943 9.88887 20.8889 9.88887Z" fill="#FFD600"/>
  <path d="M3.11108 9.88887C3.40574 9.88887 3.68824 9.77208 3.89665 9.56367C4.10506 9.35526 4.22185 9.07276 4.22185 8.77809C4.22185 8.48343 4.10506 8.20092 3.89665 7.99251C3.68824 7.7841 3.40574 7.66732 3.11108 7.66732C2.81641 7.66732 2.53391 7.7841 2.3255 7.99251C2.11709 8.20092 2 8.48343 2 8.77809C2 9.07276 2.11709 9.35526 2.3255 9.56367C2.53391 9.77208 2.81641 9.88887 3.11108 9.88887Z" fill="#FFD600"/>
  <path d="M12 5.55554C12.2947 5.55554 12.5772 5.43875 12.7856 5.23034C12.994 5.02193 13.1108 4.73943 13.1108 4.44476C13.1108 4.1501 12.994 3.8676 12.7856 3.65919C12.5772 3.45078 12.2947 3.33398 12 3.33398C11.7053 3.33398 11.4228 3.45078 11.2144 3.65919C11.006 3.8676 10.8892 4.1501 10.8892 4.44476C10.8892 4.73943 11.006 5.02193 11.2144 5.23034C11.4228 5.43875 11.7053 5.55554 12 5.55554Z" fill="#FFD600"/>
  <path d="M5.33333 20.6673H18.6667V17.3451L20.2889 9.55624C19.9587 9.70731 19.592 9.77113 19.2251 9.74109C18.8582 9.71104 18.507 9.58835 18.2046 9.38405C17.9022 9.17975 17.6586 8.89976 17.4969 8.5735C17.3352 8.24725 17.2603 7.88535 17.28 7.52291L12 10.6673L6.72 7.52291C6.73976 7.88534 6.66487 8.24724 6.50313 8.57349C6.3414 8.89974 6.09781 9.17974 5.79539 9.38405C5.49298 9.58835 5.14183 9.71103 4.77492 9.74108C4.40802 9.77113 4.04132 9.70731 3.71111 9.55624L5.33333 17.3451V20.6673Z" stroke="#FFD600" stroke-width="2" stroke-linecap="round" stroke-linejoin="round"/>
</svg>
<svg width="24" height="24" viewBox="0 0 24 24" fill="none" xmlns="http://www.w3.org/2000/svg">
  <path d="M20.8 8.66661C21.1833 8.66661 21.5 8.51661 21.75 8.21661C22 7.91661 22.0833 7.58328 22 7.21661C21.9167 6.84994 21.7083 6.56661 21.375 6.36661C21.0417 6.16661 20.7 6.13328 20.35 6.26661C20 6.39994 19.7333 6.63328 19.55 6.96661C19.3667 7.29994 19.3333 7.64994 19.45 8.01661C19.5667 8.38328 19.8 8.65828 20.15 8.84161C20.5 9.02494 20.8333 8.99994 21.15 8.76661C21.1167 8.79994 21.0167 8.76661 20.85 8.66661H20.8ZM3.175 8.84161C3.525 8.65828 3.75833 8.38328 3.875 8.01661C3.99167 7.64994 3.96667 7.29994 3.8 6.96661C3.63333 6.63328 3.36667 6.39994 3 6.26661C2.63333 6.13328 2.28333 6.16661 1.95 6.36661C1.61667 6.56661 1.41667 6.84994 1.35 7.21661C1.28333 7.58328 1.375 7.91661 1.625 8.21661C1.875 8.51661 2.19167 8.66661 2.575 8.66661C2.40833 8.76661 2.30833 8.79994 2.275 8.76661C2.59167 8.99994 2.925 9.02494 3.175 8.84161ZM12 8.66661C12.3833 8.66661 12.7 8.51661 12.95 8.21661C13.2 7.91661 13.2833 7.58328 13.2 7.21661C13.1167 6.84994 12.9083 6.56661 12.575 6.36661C12.2417 6.16661 11.9 6.13328 11.55 6.26661C11.2 6.39994 10.9333 6.63328 10.75 6.96661C10.5667 7.29994 10.5333 7.64994 10.65 8.01661C10.7667 8.38328 11 8.65828 11.35 8.84161C11.7 9.02494 12.0333 8.99994 12.35 8.76661C12.3167 8.79994 12.2167 8.76661 12.05 8.66661H12ZM8.1 14.5416L12 11.5166L15.9 14.5416L14.425 9.68328L18.475 6.58328L13.475 6.14994L12 1.49994L10.525 6.14994L5.525 6.58328L9.575 9.68328L8.1 14.5416ZM4 21.9999V19.9999C4 18.6833 4.48767 17.5873 5.463 16.712C6.43833 15.8366 7.61433 15.3989 8.99 15.3999H15.01C16.3833 15.3999 17.5583 15.8379 18.535 16.714C19.5117 17.59 19.9993 18.6856 20 19.9999V21.9999H4Z" fill="#FFD600"/>
</svg>
