
<svg width="48" height="48" viewBox="0 0 48 48" fill="none" xmlns="http://www.w3.org/2000/svg">
  <path d="M24 32C30.6274 32 36 26.6274 36 20C36 13.3726 30.6274 8 24 8C17.3726 8 12 13.3726 12 20C12 26.6274 17.3726 32 24 32Z" stroke="#C08A0C" stroke-width="2" stroke-linecap="round" stroke-linejoin="round" fill="#C08A0C"/>
  <path d="M24 24C26.2091 24 28 22.2091 28 20C28 17.7909 26.2091 16 24 16C21.7909 16 20 17.7909 20 20C20 22.2091 21.7909 24 24 24Z" fill="#FFF5CC" stroke="#C08A0C" stroke-width="2" stroke-linecap="round" stroke-linejoin="round"/>
</svg>
<svg width="48" height="48" viewBox="0 0 48 48" fill="none" xmlns="http://www.w3.org/2000/svg">
  <circle cx="24" cy="29" r="14" fill="#FFF6D0"/>
  <circle cx="24" cy="24" r="10" fill="#FFD600"/>
  <path d="M24 19L26.5 22L30 22.5L27.5 25.5L28 29L24 27.5L20 29L20.5 25.5L18 22.5L21.5 22L24 19Z" fill="#FFD600" stroke="#FFFFFF" stroke-width="2" stroke-linecap="round" stroke-linejoin="round"/>
</svg>
