
<svg width="40" height="40" viewBox="0 0 40 40" fill="none" xmlns="http://www.w3.org/2000/svg">
  <rect width="40" height="40" rx="20" fill="#FFFAEB"/>
  <path d="M20 26.6673C23.6819 26.6673 26.6667 23.6825 26.6667 20.0007C26.6667 16.3188 23.6819 13.334 20 13.334C16.3181 13.334 13.3333 16.3188 13.3333 20.0007C13.3333 23.6825 16.3181 26.6673 20 26.6673Z" stroke="#D9A41B" stroke-width="1.5" stroke-linecap="round" stroke-linejoin="round"/>
  <path d="M20 23.334C21.8409 23.334 23.3333 21.8416 23.3333 20.0007C23.3333 18.1597 21.8409 16.6673 20 16.6673C18.159 16.6673 16.6666 18.1597 16.6666 20.0007C16.6666 21.8416 18.159 23.334 20 23.334Z" stroke="#D9A41B" stroke-width="1.5" stroke-linecap="round" stroke-linejoin="round"/>
  <path d="M20 20.0007V13.334" stroke="#D9A41B" stroke-width="1.5" stroke-linecap="round" stroke-linejoin="round"/>
  <path d="M17.1667 14.1673L14.1667 11.1673" stroke="#D9A41B" stroke-width="1.5" stroke-linecap="round" stroke-linejoin="round"/>
  <path d="M22.8333 14.1673L25.8333 11.1673" stroke="#D9A41B" stroke-width="1.5" stroke-linecap="round" stroke-linejoin="round"/>
</svg>
<svg width="20" height="20" viewBox="0 0 20 20" fill="none" xmlns="http://www.w3.org/2000/svg">
  <path d="M10 11.6667C8.83333 11.6667 7.83333 11.25 7 10.4167C6.16667 9.58333 5.75 8.58333 5.75 7.41667C5.75 6.25 6.16667 5.25 7 4.41667C7.83333 3.58333 8.83333 3.16667 10 3.16667C11.1667 3.16667 12.1667 3.58333 13 4.41667C13.8333 5.25 14.25 6.25 14.25 7.41667C14.25 8.58333 13.8333 9.58333 13 10.4167C12.1667 11.25 11.1667 11.6667 10 11.6667ZM4.16667 16.6667L5.75 12.5833L9.16667 9.16667L10.8333 10.8333L7.41667 14.25L3.33333 15.8333L4.16667 16.6667ZM10 10C10.7222 10 11.3403 9.74306 11.8542 9.22917C12.3681 8.71528 12.625 8.09722 12.625 7.375C12.625 6.65278 12.3681 6.03472 11.8542 5.52083C11.3403 5.00694 10.7222 4.75 10 4.75C9.27778 4.75 8.65972 5.00694 8.14583 5.52083C7.63194 6.03472 7.375 6.65278 7.375 7.375C7.375 8.09722 7.63194 8.71528 8.14583 9.22917C8.65972 9.74306 9.27778 10 10 10ZM6.5 6.5L9.16667 9.16667L6.5 6.5Z" fill="#FFD600"/>
</svg>
