
<svg width="40" height="40" viewBox="0 0 40 40" fill="none" xmlns="http://www.w3.org/2000/svg">
  <circle cx="20" cy="20" r="20" fill="#FFF4CC"/>
  <path d="M20 28C23.866 28 27 24.866 27 21C27 17.134 23.866 14 20 14C16.134 14 13 17.134 13 21C13 24.866 16.134 28 20 28Z" fill="#FFD600" stroke="#FFD600" stroke-width="2" stroke-linecap="round" stroke-linejoin="round"/>
  <path d="M20 24C21.6569 24 23 22.6569 23 21C23 19.3431 21.6569 18 20 18C18.3431 18 17 19.3431 17 21C17 22.6569 18.3431 24 20 24Z" fill="#FFF4CC" stroke="#FFF4CC" stroke-width="2" stroke-linecap="round" stroke-linejoin="round"/>
  <path d="M20 18V12M15 14L17 16M25 14L23 16" stroke="#FFD600" stroke-width="2" stroke-linecap="round" stroke-linejoin="round"/>
</svg>
